<svg width="16" height="16" viewBox="0 0 16 16" fill="none" xmlns="http://www.w3.org/2000/svg">
    <path d="M3.53082 5.46927L3.5308 5.46926C3.3901 5.32856 3.19926 5.24951 3.00028 5.24951C2.80129 5.24951 2.61046 5.32856 2.46975 5.46926C2.32905 5.60997 2.25 5.8008 2.25 5.99979C2.25 6.19878 2.32905 6.38961 2.46975 6.53032L7.46965 11.5302C7.46969 11.5303 7.46972 11.5303 7.46975 11.5303C7.53939 11.6 7.62207 11.6553 7.71307 11.693C7.80412 11.7308 7.90172 11.7502 8.00028 11.7502C8.09884 11.7502 8.19643 11.7308 8.28748 11.693C8.37849 11.6553 8.46117 11.6 8.53081 11.5303C8.53084 11.5303 8.53087 11.5303 8.5309 11.5302L13.5308 6.53032C13.6005 6.46065 13.6557 6.37793 13.6934 6.28691C13.7311 6.19588 13.7506 6.09832 13.7506 5.99979C13.7506 5.90126 13.7311 5.8037 13.6934 5.71267C13.6557 5.62164 13.6005 5.53893 13.5308 5.46926C13.4611 5.39959 13.3784 5.34433 13.2874 5.30662C13.1964 5.26892 13.0988 5.24951 13.0003 5.24951C12.9018 5.24951 12.8042 5.26892 12.7132 5.30662C12.6221 5.34433 12.5394 5.39959 12.4698 5.46926L12.4697 5.46927L8.00028 9.93934L3.53082 5.46927Z" fill="currentColor" stroke="currentColor" stroke-width="0.5"/>
</svg>
