<svg width="38" height="38" viewBox="0 0 38 38" fill="none" xmlns="http://www.w3.org/2000/svg">
    <circle cx="18.6391" cy="18.6391" r="18.6391" fill="currentColor" fill-opacity="0.38"/>
    <path d="M10.3143 18.7495L10.3144 18.7509C10.3438 20.9389 11.2336 23.0273 12.7913 24.5641C14.349 26.1008 16.4493 26.9624 18.6375 26.9622C20.2822 26.9619 21.8899 26.4744 23.2577 25.5612C24.6256 24.648 25.6922 23.35 26.3229 21.8311C26.9537 20.3122 27.1203 18.6404 26.8017 17.0269C26.4833 15.4141 25.6944 13.9317 24.5346 12.7667L22.479 10.5159L24.8048 10.5159C25.0131 10.5159 25.2128 10.4332 25.3601 10.2859C25.5073 10.1387 25.5901 9.93893 25.5901 9.73067C25.5901 9.52241 25.5073 9.32267 25.3601 9.17541C25.2128 9.02814 25.0131 8.94541 24.8048 8.94541L20.6933 8.94541C20.485 8.94541 20.2853 9.02814 20.138 9.17541C19.9907 9.32267 19.908 9.52241 19.908 9.73067L19.908 13.8422C19.908 14.0505 19.9907 14.2502 20.138 14.3975C20.2853 14.5448 20.485 14.6275 20.6933 14.6275C20.9015 14.6275 21.1012 14.5448 21.2485 14.3975C21.3958 14.2502 21.4785 14.0505 21.4785 13.8422L21.4785 11.7515L23.3903 13.8375C23.3987 13.8473 23.4077 13.8566 23.4171 13.8654C24.3546 14.8037 24.995 15.9974 25.2583 17.2975C25.5218 18.5982 25.3961 19.9476 24.8971 21.1773C24.3981 22.4069 23.5478 23.4623 22.4524 24.2115C21.3571 24.9607 20.0653 25.3706 18.7383 25.3899C17.4114 25.4092 16.1082 25.0371 14.9915 24.3201C13.8749 23.603 12.9942 22.5728 12.4596 21.3582C11.9251 20.1436 11.7602 18.7984 11.9857 17.4906C12.2112 16.1828 12.817 14.9705 13.7275 14.0051C13.7984 13.9301 13.8538 13.842 13.8906 13.7457C13.9274 13.6493 13.9448 13.5466 13.942 13.4435C13.9391 13.3403 13.9159 13.2388 13.8738 13.1446C13.8317 13.0504 13.7715 12.9655 13.6965 12.8946L13.6278 12.9672L13.6965 12.8946C13.6216 12.8237 13.5334 12.7683 13.437 12.7314C13.3406 12.6946 13.2379 12.6772 13.1348 12.68C13.0317 12.6829 12.9301 12.7061 12.836 12.7482C12.7418 12.7903 12.6569 12.8505 12.586 12.9254C11.1226 14.4673 10.3091 16.5135 10.3144 18.6393L10.3143 18.7495Z" fill="white" stroke="white" stroke-width="0.2"/>
</svg>
