<svg width="38" height="38" viewBox="0 0 38 38" fill="none" xmlns="http://www.w3.org/2000/svg">
    <circle cx="18.6391" cy="18.6391" r="18.6391" fill="currentColor" fill-opacity="0.38"/>
    <path d="M29.5 10.25H8.5C8.03587 10.25 7.59075 10.4344 7.26256 10.7626C6.93437 11.0908 6.75 11.5359 6.75 12V26C6.75 26.4641 6.93437 26.9092 7.26256 27.2374C7.59075 27.5656 8.03587 27.75 8.5 27.75H29.5C29.9641 27.75 30.4092 27.5656 30.7374 27.2374C31.0656 26.9092 31.25 26.4641 31.25 26V12C31.25 11.5359 31.0656 11.0908 30.7374 10.7626C30.4092 10.4344 29.9641 10.25 29.5 10.25ZM29.5 26H8.5V12H29.5V26ZM10.25 19.875C10.25 19.6429 10.3422 19.4204 10.5063 19.2563C10.6704 19.0922 10.8929 19 11.125 19H12.875C13.1071 19 13.3296 19.0922 13.4937 19.2563C13.6578 19.4204 13.75 19.6429 13.75 19.875C13.75 20.1071 13.6578 20.3296 13.4937 20.4937C13.3296 20.6578 13.1071 20.75 12.875 20.75H11.125C10.8929 20.75 10.6704 20.6578 10.5063 20.4937C10.3422 20.3296 10.25 20.1071 10.25 19.875ZM27.75 19.875C27.75 20.1071 27.6578 20.3296 27.4937 20.4937C27.3296 20.6578 27.1071 20.75 26.875 20.75H16.375C16.1429 20.75 15.9204 20.6578 15.7563 20.4937C15.5922 20.3296 15.5 20.1071 15.5 19.875C15.5 19.6429 15.5922 19.4204 15.7563 19.2563C15.9204 19.0922 16.1429 19 16.375 19H26.875C27.1071 19 27.3296 19.0922 27.4937 19.2563C27.6578 19.4204 27.75 19.6429 27.75 19.875ZM22.5 23.375C22.5 23.6071 22.4078 23.8296 22.2437 23.9937C22.0796 24.1578 21.8571 24.25 21.625 24.25H11.125C10.8929 24.25 10.6704 24.1578 10.5063 23.9937C10.3422 23.8296 10.25 23.6071 10.25 23.375C10.25 23.1429 10.3422 22.9204 10.5063 22.7563C10.6704 22.5922 10.8929 22.5 11.125 22.5H21.625C21.8571 22.5 22.0796 22.5922 22.2437 22.7563C22.4078 22.9204 22.5 23.1429 22.5 23.375ZM27.75 23.375C27.75 23.6071 27.6578 23.8296 27.4937 23.9937C27.3296 24.1578 27.1071 24.25 26.875 24.25H25.125C24.8929 24.25 24.6704 24.1578 24.5063 23.9937C24.3422 23.8296 24.25 23.6071 24.25 23.375C24.25 23.1429 24.3422 22.9204 24.5063 22.7563C24.6704 22.5922 24.8929 22.5 25.125 22.5H26.875C27.1071 22.5 27.3296 22.5922 27.4937 22.7563C27.6578 22.9204 27.75 23.1429 27.75 23.375Z" fill="white"/>
</svg>
